<?xml version="1.0" encoding="UTF-8"?>
<svg version="1.1" viewBox="0 0 1860 1580" width="1280" height="1280" xmlns="http://www.w3.org/2000/svg">
<path transform="translate(1642,18)" d="m0 0h15l17 1 24 4 21 7 16 8 15 10 12 11 8 8 12 16 11 18 10 21 9 27 4 19 4 32v41l-3 30-4 27-6 31-11 44-8 27-15 47-15 43-12 35-11 30-12 34-12 36-13 42-10 38-7 32-5 36-1 12v34l3 23 5 20 5 14 8 16 8 12 11 13 9 9 17 13 21 12 23 12 16 11 14 13 9 12 8 14 7 19 3 17v33l-4 24-7 24-9 22-11 23-11 19-18 27-16 21-11 14-11 12-7 8-8 8-7 8-19 19-8 7-15 14-8 7-16 13-14 11-13 10-18 13-10 7-24 16-19 12-20 12-23 13-26 14-26 13-36 16-34 14-35 13-46 15-44 12-40 9-44 8-40 6-38 4-32 2-24 1h-68l-41-2-43-4-49-7-48-9-42-10-36-10-49-16-29-10-37-14-36-15-25-11-25-12-22-11-23-13-19-12-12-8-15-11-16-13-8-7-12-11-13-14-12-16-9-15-9-19-6-18-4-19-2-19v-15l4-33 8-36 20-71 7-29 4-24 2-19v-28l-4-27-6-21-7-17-10-19-14-20-12-14-14-15-12-11-13-11-20-15-33-22-24-14-18-10-26-14-23-14-17-12-13-10-17-14-13-12-8-8-9-11-12-15-12-18-9-16-9-20-8-25-5-25-2-15v-43l3-22 5-25 8-27 9-24 16-33 10-18 11-18 14-20 9-12 11-14 12-14 7-8 12-13 4-5h2l2-4 15-14 12-11 14-12 11-9 17-13 18-13 20-13 22-13 22-12 28-13 35-13 24-7 29-6 24-3h43l24 4 21 6 20 8 14 8 16 11 13 12 13 13 13 18 11 19 14 28 11 17 9 12 11 12 10 9 14 10 23 12 19 7 21 5 24 3h38l35-4 28-5 44-11 41-13 44-16 30-12 39-16 71-32 28-13 25-12 18-8 16-8 22-10 16-8 60-28 18-8 25-11 35-15 32-13 40-15 37-12 29-8 32-7 25-4z" fill="#B96AF2"/>
</svg>
