<?xml version="1.0" encoding="UTF-8"?>
<svg version="1.1" viewBox="0 0 1503 2048" width="1280" height="1280" xmlns="http://www.w3.org/2000/svg">
<path transform="translate(305,112)" d="m0 0h998l7 2v1825l-1 1h-1e3l-5-4-9-11-10-14-12-23-8-19-7-21-6-24-6-32-4-33-2-25v-59l4-53 5-41 7-48 7-37 8-37 11-47 12-44 13-45 11-39 7-31 7-40 5-35 4-47 1-26v-60l-2-42-4-43-6-48-8-51-8-42-14-66-15-63-16-67-11-45-14-65-7-35-6-39-5-45-2-35v-27l2-33 5-35 6-26 9-27 11-25 11-20 16-24 13-16 9-10z" fill="#BB6CF4"/>
</svg>
